<?xml version="1.0" standalone="yes"?>

<svg version="1.1" viewBox="0.0 0.0 130.0 130.0" fill="none" stroke="none" stroke-linecap="square" stroke-miterlimit="10" xmlns="http://www.w3.org/2000/svg" xmlns:xlink="http://www.w3.org/1999/xlink"><clipPath id="p.0"><path d="m0 0l130.0 0l0 130.0l-130.0 0l0 -130.0z" clip-rule="nonzero"></path></clipPath><g clip-path="url(#p.0)"><path fill="#000000" fill-opacity="0.0" d="m0 0l130.7769 0l0 130.7769l-130.7769 0z" fill-rule="nonzero"></path><path fill="#000000" fill-opacity="0.0" d="m8.696977 106.1086l55.880806 -84.15748l56.591637 84.15748z" fill-rule="nonzero"></path><path stroke="#000000" stroke-width="8.0" stroke-linejoin="round" stroke-linecap="butt" d="m8.696977 106.1086l55.880806 -84.15748l56.591637 84.15748z" fill-rule="nonzero"></path><path fill="#000000" fill-opacity="0.0" d="m31.249598 41.70942l232.91339 0l0 84.15748l-232.91339 0z" fill-rule="nonzero"></path><path fill="#000000" d="m61.4371 63.781292l0 21.328121l0.6875 0q1.421875 0 2.0468712 0.5625q0.625 0.546875 0.625 1.4375q0 0.890625 -0.609375 1.453125q-0.6093712 0.546875 -2.0624962 0.546875l-4.6875 0l0 -0.984375q-1.359375 0.8125 -2.859375 1.21875q-1.5 0.40625 -3.09375 0.40625q-4.515625 0 -7.265625 -2.609375q-2.75 -2.609375 -2.75 -6.484375q0 -4.0625 2.890625 -6.9375q2.890625 -2.875 7.046875 -2.875q1.5625 0 3.0625 0.484375q1.5 0.46875 2.96875 1.4375l0 -4.984375l-0.6875 0q-1.4375 0 -2.0625 -0.546875q-0.609375 -0.5625 -0.609375 -1.453125q0 -0.890625 0.609375 -1.4375q0.625 -0.5624962 2.0625 -0.5624962l4.6875 0zm-4.0 16.984371q0 -2.484375 -1.734375 -4.203125q-1.734375 -1.71875 -4.265625 -1.71875q-2.5 0 -4.234375 1.71875q-1.734375 1.71875 -1.734375 4.140625q0 2.21875 1.5625 3.640625q1.5625 1.40625 4.40625 1.40625q2.84375 0 4.421875 -1.40625q1.578125 -1.421875 1.578125 -3.578125zm13.769527 -16.984371l0 8.984371q1.46875 -0.96875 2.984375 -1.4375q1.515625 -0.484375 3.046875 -0.484375q4.171875 0 7.0625 2.875q2.890625 2.875 2.890625 6.9375q0 3.875 -2.765625 6.484375q-2.75 2.609375 -7.265625 2.609375q-1.59375 0 -3.078125 -0.40625q-1.484375 -0.40625 -2.875 -1.21875l0 0.984375l-4.6875 0q-1.4375 0 -2.0625 -0.546875q-0.6093712 -0.5625 -0.6093712 -1.46875q0 -0.875 0.6249962 -1.421875q0.625 -0.5625 2.046875 -0.5625l0.6875 0l0 -17.328125l-0.6875 0q-1.4375 0 -2.0625 -0.546875q-0.6093712 -0.5625 -0.6093712 -1.46875q0 -0.875 0.6093712 -1.421875q0.625 -0.5624962 2.0625 -0.5624962l4.6875 0zm11.96875 16.984371q0 -2.484375 -1.734375 -4.203125q-1.734375 -1.71875 -4.25 -1.71875q-2.5 0 -4.25 1.71875q-1.734375 1.71875 -1.734375 4.140625q0 2.21875 1.5625 3.640625q1.5625 1.40625 4.421875 1.40625q2.84375 0 4.40625 -1.40625q1.578125 -1.421875 1.578125 -3.578125z" fill-rule="nonzero"></path></g></svg>

